<svg id="Layer_1" data-name="Layer 1" xmlns="http://www.w3.org/2000/svg" xmlns:xlink="http://www.w3.org/1999/xlink" viewBox="0 0 226.21 91.69"><defs><style>.cls-1{fill:none;}.cls-2{clip-path:url(#clip-path);}.cls-3{fill:#d81e05;}.cls-4{fill:#fff;}</style><clipPath id="clip-path"><rect class="cls-1" width="226.21" height="91.69"/></clipPath></defs><title>Logo</title><g class="cls-2"><path class="cls-3" d="M61.76,26.07A15.24,15.24,0,0,0,54.06,24a19.27,19.27,0,0,0-8.46,2.07,16.91,16.91,0,0,0-5.48,4.22,10,10,0,0,0-2.24,5.42h9.67l0,.66c-.15,3.74-.55,8-2.35,8H26.51c-1.8,0-2.2-4.3-2.34-8.05l0-.64h9.63a9.68,9.68,0,0,0-2-5,16.16,16.16,0,0,0-6.73-5.09A19.46,19.46,0,0,0,17.43,24a15.64,15.64,0,0,0-7.68,2.09,18.69,18.69,0,0,0-5.47,5,22.27,22.27,0,0,0-2.94,5.6A22.8,22.8,0,0,0,0,44.16,28.48,28.48,0,0,0,3,56.51a49.05,49.05,0,0,0,5.14,8.4A81.55,81.55,0,0,0,14,71.84c2.31,2.48,6.1,6.14,9.18,8.88,1.9,1.69,5.6,4.9,7.88,6.83l4.83,4.14c1.44-1.28,9.3-7.92,13.14-11.4A110.47,110.47,0,0,0,63,65.61c4.57-6,6.79-10.88,7.85-15.16A23.14,23.14,0,0,0,69.4,34.53a19,19,0,0,0-7.64-8.46M41,49.66c0,.29-3.85,29.07-4.6,33a.53.53,0,0,1-.54.56.52.52,0,0,1-.52-.57c-.17-1.2-2.6-22.88-3.1-27.3a6.71,6.71,0,0,1,6.84-6.17,7.28,7.28,0,0,1,1.71.2l.24.06Z"/><path class="cls-3" d="M29.91,17.41a8,8,0,0,0,.54,6.69,32.37,32.37,0,0,0,3.31,4.59A15.34,15.34,0,0,1,36,32.46a15.21,15.21,0,0,1,3.58-6.59,27.23,27.23,0,0,1,4.22-3.78,13.82,13.82,0,0,0,5.37-9.23c.61-4-1-6.76-3.33-9.12A13.45,13.45,0,0,0,36.34,0h-.09A15.38,15.38,0,0,0,28.3,2.56a15.2,15.2,0,0,0-2,1.78c2.22,0,5.88.42,7.62,2.75,1.4,2,.29,4.88-1,6.23-.8,1.06-2.41,2.67-3,4.09"/><path class="cls-4" d="M47.55,35.73l0,.66c-.15,3.74-.55,8-2.35,8H26.51c-1.8,0-2.2-4.3-2.34-8.05l0-.64Z"/><path class="cls-4" d="M41,49.66c0,.29-3.85,29.07-4.6,33a.53.53,0,0,1-.54.56.52.52,0,0,1-.52-.57c-.17-1.2-2.6-22.88-3.1-27.3a6.71,6.71,0,0,1,6.84-6.17,7.28,7.28,0,0,1,1.71.2l.24.06Z"/><polygon class="cls-4" points="79.88 35.82 83.7 35.82 83.7 44.24 91.11 44.24 91.11 35.82 94.93 35.82 94.93 56.49 91.11 56.49 91.11 47.82 83.7 47.82 83.7 56.49 79.88 56.49 79.88 35.82"/><path class="cls-4" d="M104.8,53.59a3.79,3.79,0,0,0,3.46-2h4.1A7.9,7.9,0,0,1,104.9,57a8.19,8.19,0,0,1-8.18-8.26,8.28,8.28,0,0,1,8.18-8.4,8.16,8.16,0,0,1,8,8.15,9.27,9.27,0,0,1-.22,1.88H100.64a4.41,4.41,0,0,0,4.16,3.21m4.48-6.2a4.39,4.39,0,0,0-4.35-3.61,4.47,4.47,0,0,0-4.38,3.61Z"/><path class="cls-4" d="M127.72,54.58a5.84,5.84,0,0,1-1.23,1.05A7.05,7.05,0,0,1,122.33,57c-4.35,0-7.56-3.54-7.56-8.36,0-4.65,3.36-8.2,7.74-8.2a6.89,6.89,0,0,1,5.21,2.5V41h3.43V56.49h-3.43Zm-4.62-1a4.6,4.6,0,0,0,4.53-4.87,4.56,4.56,0,0,0-4.53-4.88,4.72,4.72,0,0,0-4.6,4.94,4.66,4.66,0,0,0,4.6,4.81"/><path class="cls-4" d="M141,41v3.41h-.6a3.94,3.94,0,0,0-2.25.88c-.8.65-1.11,1.63-1.11,3.17v8.05h-3.73V41h3.42v1.92A5.33,5.33,0,0,1,141,41"/><polygon class="cls-4" points="145 44.4 142.98 44.4 142.98 40.97 145 40.97 145 35.82 148.73 35.82 148.73 40.97 150.75 40.97 150.75 44.4 148.73 44.4 148.73 56.49 145 56.49 145 44.4"/><polygon class="cls-4" points="180.6 70.87 178.57 70.87 178.57 67.44 180.6 67.44 180.6 62.29 184.33 62.29 184.33 67.44 186.35 67.44 186.35 70.87 184.33 70.87 184.33 82.96 180.6 82.96 180.6 70.87"/><polygon class="cls-4" points="79.87 62.29 90.39 62.29 90.39 65.87 83.7 65.87 83.7 70.9 90.08 70.9 90.08 74.48 83.7 74.48 83.7 82.96 79.87 82.96 79.87 62.29"/><path class="cls-4" d="M100.1,66.92a8.29,8.29,0,0,1-.1,16.57,8.29,8.29,0,0,1,.1-16.57m0,13.14a4.6,4.6,0,0,0,4.5-4.81,4.53,4.53,0,1,0-9-.09,4.66,4.66,0,0,0,4.54,4.9"/><path class="cls-4" d="M120.61,81.42a4.45,4.45,0,0,1-4,2.07,6.59,6.59,0,0,1-4.44-1.7c-1.42-1.27-1.94-2.69-1.94-5.25v-9.1H114v7.93c0,3.12,1.08,4.69,3.21,4.69s3.14-1.66,3.14-4.69V67.44H124V83h-3.43Z"/><path class="cls-4" d="M126.16,67.44h3.46V68.8a5.64,5.64,0,0,1,4.22-1.88,6.19,6.19,0,0,1,4.79,2.31c1,1.27,1.32,2.69,1.32,5.34V83h-3.73V75.31c0-2-.28-3.21-.93-4a3,3,0,0,0-2.19-1,3.13,3.13,0,0,0-2.59,1.45c-.46.78-.61,1.67-.61,3.8V83h-3.74Z"/><path class="cls-4" d="M154.79,81.08a7.32,7.32,0,0,1-5.34,2.41c-4.13,0-7.62-3.8-7.62-8.27a8.11,8.11,0,0,1,7.81-8.3,7.23,7.23,0,0,1,4.81,1.91V62.29h3.73V83h-3.39Zm-4.63-1a4.87,4.87,0,1,0-4.59-4.9,4.79,4.79,0,0,0,4.59,4.9"/><path class="cls-4" d="M173.3,81.05a6.25,6.25,0,0,1-1.24,1,7,7,0,0,1-4.16,1.39c-4.35,0-7.56-3.55-7.56-8.36,0-4.66,3.36-8.21,7.75-8.21a6.89,6.89,0,0,1,5.21,2.5v-2h3.42V83H173.3Zm-4.63-1a4.61,4.61,0,0,0,4.54-4.87,4.56,4.56,0,0,0-4.54-4.88,4.71,4.71,0,0,0-4.59,4.94,4.65,4.65,0,0,0,4.59,4.81"/><path class="cls-4" d="M188.17,62.29h3.73v3.43h-3.73Zm0,5.16h3.73V83h-3.73Z"/><path class="cls-4" d="M202.21,66.92a8.29,8.29,0,0,1-.1,16.57,8.29,8.29,0,0,1,.1-16.57m0,13.14a4.61,4.61,0,0,0,4.5-4.81,4.53,4.53,0,1,0-9-.09,4.66,4.66,0,0,0,4.54,4.9"/><path class="cls-4" d="M212.42,67.44h3.45V68.8a5.65,5.65,0,0,1,4.23-1.88,6.17,6.17,0,0,1,4.78,2.31c1,1.27,1.33,2.69,1.33,5.34V83h-3.74V75.31c0-2-.27-3.21-.92-4a3,3,0,0,0-2.19-1,3.1,3.1,0,0,0-2.59,1.45c-.47.78-.62,1.67-.62,3.8V83h-3.73Z"/></g></svg>